<svg id="Layer_1" data-name="Layer 1" xmlns="http://www.w3.org/2000/svg" width="0.39in" height="0.42in" viewBox="0 0 28.27 30.15">
  <defs>
    <style>
      .cls-1 {
        fill: #7f7773;
      }
    </style>
  </defs>
  <g>
    <path class="cls-1" d="M22.1,15.69l-5.28-1-2.66-4.53L14.09,10l-2.57,4.73L6.41,15.92l-.13,0L10,19.87l-.51,5.36,4.85-2.3,4.93,2.15-.69-5.35Zm-7.82,6-3.49,1.66.36-3.84v0L8.5,16.63l3.3-.74.48-.11,1.85-3.4,1.72,2.92.24.42,3.81.72L17.66,19l-.32.37.49,3.85Z"/>
    <path class="cls-1" d="M22.73,5.4h-2V2.52a2.66,2.66,0,0,0-1.17-2A3.64,3.64,0,0,0,16.72.31L6,5.4h-.3A4.35,4.35,0,0,0,1.38,9.75V25.64A4.35,4.35,0,0,0,5.73,30h17a4.35,4.35,0,0,0,4.35-4.35V9.75A4.35,4.35,0,0,0,22.73,5.4Zm-5.59-4a2.51,2.51,0,0,1,1.79.12,1.53,1.53,0,0,1,.64,1.1V5.4H8.71Zm8.74,24.26a3.15,3.15,0,0,1-3.15,3.15h-17a3.15,3.15,0,0,1-3.15-3.15V9.75A3.15,3.15,0,0,1,5.73,6.6h17a3.15,3.15,0,0,1,3.15,3.15Z"/>
  </g>
</svg>
