<svg xmlns="http://www.w3.org/2000/svg" width="18.001" height="18.001" viewBox="0 0 18.001 18.001">
  <g id="Facebook_1x" data-name="Facebook 1x" transform="translate(-93.024 -28.742)">
    <path id="White" d="M110.032,28.742H94.018a.994.994,0,0,0-.993.994V45.75a.994.994,0,0,0,.993.993h8.621V39.772h-2.346V37.056h2.346v-2a3.274,3.274,0,0,1,3.494-3.591,19.2,19.2,0,0,1,2.1.107V34H106.79c-1.128,0-1.346.536-1.346,1.323v1.735h2.69l-.351,2.716h-2.339v6.971h4.587a.994.994,0,0,0,.993-.993V29.737A.994.994,0,0,0,110.032,28.742Z" fill="#393630"/>
  </g>
</svg>
