<svg id="more_1x_Red" data-name="more 1x Red" xmlns="http://www.w3.org/2000/svg" width="26" height="7" viewBox="0 0 26 7">
  <path id="path" d="M3.467,22a3.5,3.5,0,0,0,0,7,3.5,3.5,0,0,0,0-7Zm0,6.125a2.625,2.625,0,1,1,2.6-2.625A2.615,2.615,0,0,1,3.467,28.125Z" transform="translate(0 -22)" fill="#b31a1b"/>
  <path id="path-1" d="M47.467,22a3.5,3.5,0,1,0,3.467,3.5A3.488,3.488,0,0,0,47.467,22Zm0,6.125a2.625,2.625,0,1,1,2.6-2.625A2.615,2.615,0,0,1,47.467,28.125Z" transform="translate(-24.933 -22)" fill="#b31a1b"/>
  <path id="path-2" d="M25.467,22a3.5,3.5,0,1,0,3.467,3.5A3.488,3.488,0,0,0,25.467,22Zm0,6.125a2.625,2.625,0,1,1,2.6-2.625A2.615,2.615,0,0,1,25.467,28.125Z" transform="translate(-12.467 -22)" fill="#b31a1b"/>
</svg>
