<svg id="Layer_1" data-name="Layer 1" xmlns="http://www.w3.org/2000/svg" width="0.39in" height="0.37in" viewBox="0 0 28.27 26.6">
  <defs>
    <style>
      .cls-1 {
        fill: none;
      }

      .cls-2 {
        fill: #393630;
      }

      .cls-3 {
        fill: #7f7773;
      }
    </style>
  </defs>
  <path class="cls-1" d="M7.19,22.34l0,0A1.16,1.16,0,0,1,5.54,20.7l1.21-1.21a3,3,0,0,0-1.15-.23,3,3,0,1,0,2.8,1.88Z"/>
  <path class="cls-1" d="M4.6,7.22a3,3,0,1,0-3-3A3,3,0,0,0,4.6,7.22Z"/>
  <path class="cls-1" d="M7.54,6.61A4.42,4.42,0,0,1,7,7.14L8.87,9,9,8.88c.14-.12.29-.23.44-.34L7.54,6.61Z"/>
  <path class="cls-1" d="M9.27,18.08,6.1,21.26a.37.37,0,0,0,.53.53l3.28-3.28A6.51,6.51,0,0,1,9.27,18.08Z"/>
  <path class="cls-1" d="M20,13.18H14.6a.37.37,0,0,0-.36.37.36.36,0,0,0,.36.38H20a3.59,3.59,0,0,1,0-.47A2.62,2.62,0,0,1,20,13.18Z"/>
  <path class="cls-2" d="M18.63,14.72c.12,0,0,0,0,0Z"/>
  <path class="cls-1" d="M18.88,13.93H20a3.59,3.59,0,0,1,0-.47,2.62,2.62,0,0,1,0-.28H18.9c0,.07,0,.13,0,.2A4.93,4.93,0,0,1,18.88,13.93Z"/>
  <path class="cls-1" d="M14.6,14.72a1.16,1.16,0,0,1,0-2.32h3.5A5.24,5.24,0,1,0,18,14.72H14.6Z"/>
  <path class="cls-1" d="M18.19,13.18H14.6a.37.37,0,0,0-.36.37.36.36,0,0,0,.36.38h3.57a4.93,4.93,0,0,0,0-.55C18.2,13.31,18.19,13.25,18.19,13.18Z"/>
  <path class="cls-2" d="M18.63,14.72c.12,0,0,0,0,0Z"/>
  <path class="cls-3" d="M23.76,9.57a3.89,3.89,0,0,0-3.7,2.75H18.89A6,6,0,0,0,10.17,8L8.07,5.92A3.89,3.89,0,1,0,6.32,7.67L8.26,9.6a6,6,0,0,0,.33,7.94L7.33,18.81a3.89,3.89,0,0,0-5.19,1.7,3.84,3.84,0,0,0-.25,3,3.89,3.89,0,1,0,7.19-2.92L10.67,19a6,6,0,0,0,8.14-4.16h1.31a3.88,3.88,0,1,0,3.64-5.23Zm0,6.85a3,3,0,1,1,2.95-3A3,3,0,0,1,23.76,16.42ZM4.6,1.26h0a2.94,2.94,0,1,1-3,2.93,3,3,0,0,1,.87-2.08A2.93,2.93,0,0,1,4.6,1.26ZM9,8.83l-.1.08L7.12,7.15a5.66,5.66,0,0,0,.42-.43l1.8,1.81C9.22,8.62,9.09,8.72,9,8.83Zm5.63,3.49a1.24,1.24,0,0,0,0,2.48h3.32A5.17,5.17,0,1,1,18,12.32Zm5.28,1.3s0,.06,0,.09v.15H14.6a.3.3,0,0,1-.29-.31.3.3,0,0,1,.29-.29h5.28v.07a.09.09,0,0,1,0,.05v.08A.86.86,0,0,0,19.88,13.62Zm-14.39,7a1.24,1.24,0,0,0,1.72,1.78l1.16-1.16a3,3,0,0,1-.68,3.11,2.93,2.93,0,0,1-2.09.86h0a2.95,2.95,0,0,1,0-5.9h0a3,3,0,0,1,1,.18Zm.67,1.07a.29.29,0,0,1,0-.41l3.13-3.13a5.76,5.76,0,0,0,.51.35l-3.21,3.2A.28.28,0,0,1,6.16,21.72Z"/>
  <path class="cls-1" d="M7.43,19.9l.11-.1a3.1,3.1,0,0,0-1.95-.68,3.17,3.17,0,1,0,3.17,3.17,3.12,3.12,0,0,0-.7-2L8,20.42Z"/>
</svg>
