<svg id="Layer_1" data-name="Layer 1" xmlns="http://www.w3.org/2000/svg" width="0.39in" height="0.37in" viewBox="0 0 28.27 26.6">
  <defs>
    <style>
      .cls-1 {
        fill: #b31a1b;
      }
    </style>
  </defs>
  <path class="cls-1" d="M23.76,9.57a3.89,3.89,0,0,0-3.7,2.75H18.89A6,6,0,0,0,10.17,8L8.07,5.92A3.89,3.89,0,1,0,6.32,7.67L8.26,9.6a6,6,0,0,0,.33,7.94L7.33,18.81a3.89,3.89,0,0,0-5.19,1.7,3.84,3.84,0,0,0-.25,3,3.89,3.89,0,1,0,7.19-2.92L10.67,19a6,6,0,0,0,8.14-4.16h1.31a3.88,3.88,0,1,0,3.64-5.23Zm0,6.85a3,3,0,1,1,2.95-3A3,3,0,0,1,23.76,16.42ZM4.6,1.26h0a2.94,2.94,0,1,1-3,2.93,3,3,0,0,1,.87-2.08A2.93,2.93,0,0,1,4.6,1.26ZM9,8.83l-.1.08L7.12,7.15a5.66,5.66,0,0,0,.42-.43l1.8,1.81C9.22,8.62,9.09,8.72,9,8.83Zm5.63,3.49a1.24,1.24,0,0,0,0,2.48h3.32A5.17,5.17,0,1,1,18,12.32Zm5.28,1.3s0,.06,0,.09v.15H14.6a.3.3,0,0,1-.29-.31.3.3,0,0,1,.29-.29h5.28v.07a.09.09,0,0,1,0,.05v.08A.86.86,0,0,0,19.88,13.62Zm-14.39,7a1.24,1.24,0,0,0,1.72,1.78l1.16-1.16a3,3,0,0,1-.68,3.11,2.93,2.93,0,0,1-2.09.86h0a2.95,2.95,0,0,1,0-5.9h0a3,3,0,0,1,1,.18Zm.67,1.07a.29.29,0,0,1,0-.41l3.13-3.13a5.76,5.76,0,0,0,.51.35l-3.21,3.2A.28.28,0,0,1,6.16,21.72Z"/>
</svg>
