<?xml version="1.0" encoding="utf-8"?>
<!-- Generator: Adobe Illustrator 25.4.1, SVG Export Plug-In . SVG Version: 6.00 Build 0)  -->
<svg version="1.1" id="Layer_1" xmlns="http://www.w3.org/2000/svg" xmlns:xlink="http://www.w3.org/1999/xlink" x="0px" y="0px"
	 viewBox="0 0 37 37.2" width="37" height="37.2" style="enable-background:new 0 0 37 37.2;" xml:space="preserve">
<style type="text/css">
	.st0{fill:#7F7773;}
</style>
<g id="Network_1x_Dark" transform="translate(-7 0.001)">
	<path id="network" class="st0" d="M42.3,17.6h-16v-4.4h4.3c1,0,1.7-0.8,1.7-1.8V6.1c0-1-0.8-1.8-1.7-1.8H20.3c-1,0-1.7,0.8-1.7,1.8
		v5.3c0,1,0.8,1.8,1.7,1.8h4.3v4.4h-16c-0.2,0-0.4,0.2-0.4,0.4l0,0v0.9c0,0.2,0.2,0.4,0.4,0.4h6.5v4.4h-3.5c-1,0-1.7,0.8-1.7,1.8
		c0,0,0,0,0,0v5.3c0,1,0.8,1.8,1.7,1.8h8.6c1,0,1.7-0.8,1.7-1.8v-5.3c0-1-0.8-1.8-1.7-1.8h-3.5v-4.4h17.3v4.4h-3.5
		c-1,0-1.7,0.8-1.7,1.8v5.3c0,1,0.8,1.8,1.7,1.8h8.6c1,0,1.7-0.8,1.7-1.8v-5.3c0-1-0.8-1.8-1.7-1.8h-3.5v-4.4h6.5
		c0.2,0,0.4-0.2,0.4-0.4v-0.9C42.8,17.8,42.6,17.6,42.3,17.6L42.3,17.6z M20.7,25.3v6h-9.4v-6H20.7z M19.8,11.8V5.7h11.2v6.1
		L19.8,11.8z M39.7,25.3v6h-9.4v-6H39.7z"/>
</g>
</svg>
