<svg id="Layer_1" data-name="Layer 1" xmlns="http://www.w3.org/2000/svg" width="0.39in" height="0.37in" viewBox="0 0 28.27 26.6">
  <defs>
    <style>
      .cls-1 {
        fill: #7f7773;
      }
    </style>
  </defs>
  <g>
    <path class="cls-1" d="M11.18,4.86A3.38,3.38,0,1,0,11,3.67s0,.07,0,.11C3.41,5.43,2.62,14.46,2.61,14.55l1.1.09C3.71,14.55,4.43,6.35,11.18,4.86Zm3.18-3.5a2.31,2.31,0,1,1-2.31,2.31A2.3,2.3,0,0,1,14.36,1.36Z"/>
    <path class="cls-1" d="M25.74,17.31C28,9.9,20.43,4.83,20.35,4.77l-.61.92c.07,0,6.91,4.66,4.94,11.28a3.87,3.87,0,0,0-.49,0,3.46,3.46,0,1,0,1.55.39Zm-1.55,5.32a2.31,2.31,0,1,1,2.31-2.3A2.31,2.31,0,0,1,24.19,22.63Z"/>
    <path class="cls-1" d="M7.89,22.23a3.51,3.51,0,1,0-.86.69,9.82,9.82,0,0,0,7.82,3.47,15.82,15.82,0,0,0,5.6-1.07l-.43-1C19.94,24.35,12.34,27.52,7.89,22.23ZM3.05,20a2.31,2.31,0,1,1,2.3,2.31A2.3,2.3,0,0,1,3.05,20Z"/>
  </g>
</svg>
