<?xml version="1.0" encoding="utf-8"?>
<!-- Generator: Adobe Illustrator 26.0.3, SVG Export Plug-In . SVG Version: 6.00 Build 0)  -->
<svg version="1.1" id="Layer_1" xmlns="http://www.w3.org/2000/svg" xmlns:xlink="http://www.w3.org/1999/xlink" x="0px" y="0px"
	 viewBox="0 0 32 1900" width="32" height="1900" style="enable-background:new 0 0 32 1900;" xml:space="preserve">
<style type="text/css">
	.st0{fill:#FFFFFF;}
	.st1{fill:#FFDA48;}
	.st2{fill:#B31A1B;}
	.st3{fill:#707070;}
	.st4{fill:#FFFFFF;stroke:#FFFFFF;stroke-width:0.6081;stroke-linecap:round;stroke-linejoin:round;}
	.st5{fill:#FFDA48;stroke:#FFD734;stroke-width:0.6081;stroke-linecap:round;stroke-linejoin:round;}
	.st6{fill:#7F7773;}
	.st7{fill:none;stroke:#B31A1B;stroke-width:1.1794;stroke-miterlimit:10;}
	.st8{fill:none;stroke:#707070;stroke-width:1.1794;stroke-miterlimit:10;}
	.st9{fill:none;stroke:#707070;stroke-width:1.0222;stroke-miterlimit:10;}
</style>
<path d="M24.7,7.3c-2.2-2.2-5.3-3.6-8.6-3.6C9.3,3.8,3.8,9.3,3.8,16c0,3,1.1,5.7,2.8,7.8l0,0c-0.4,0.9-1.1,1.7-1.9,2.2l0,0
	C4.2,26.2,4,26.6,4,27c0,0.6,0.4,1,1,1.1l0,0c0.3,0,0.6,0.1,1,0.1l0,0l0,0c1.6,0,3.1-0.5,4.3-1.4l0,0c1.7,0.9,3.7,1.4,5.8,1.4
	c6.8,0,12.2-5.5,12.2-12.2C28.2,12.6,26.9,9.6,24.7,7.3L24.7,7.3z M23.7,23.7c-2,2-4.7,3.2-7.7,3.2c-2,0-3.9-0.6-5.5-1.5h0.1
	c-0.1-0.1-0.2-0.1-0.4-0.1s-0.4,0.1-0.5,0.2l0,0c0,0,0,0-0.1,0l0,0c-1,0.8-2.3,1.3-3.7,1.3l0,0c0.9-0.7,1.6-1.7,2.1-2.7l0,0
	c0-0.1,0.1-0.2,0.1-0.3c0-0.1,0-0.1,0-0.2l0,0c0-0.2-0.1-0.3-0.2-0.4l0,0c-1.7-1.9-2.7-4.4-2.7-7.2C5.1,10,10,5.1,16,5.1
	S26.8,10,26.8,16C26.8,19,25.6,21.7,23.7,23.7L23.7,23.7L23.7,23.7z"/>
<path d="M16.9,16c0,0.5-0.4,0.9-0.9,0.9s-0.9-0.4-0.9-0.9s0.4-0.9,0.9-0.9l0,0C16.5,15.1,16.9,15.5,16.9,16L16.9,16z"/>
<path d="M21.3,16c0,0.5-0.4,0.9-0.9,0.9s-0.9-0.4-0.9-0.9s0.4-0.9,0.9-0.9l0,0C20.9,15.1,21.3,15.5,21.3,16L21.3,16z"/>
<path d="M12.4,16c0,0.5-0.4,0.9-0.9,0.9s-0.9-0.4-0.9-0.9s0.4-0.9,0.9-0.9l0,0C12,15.1,12.4,15.5,12.4,16L12.4,16z"/>
<path class="st0" d="M24.7,59.3c-2.2-2.2-5.3-3.6-8.6-3.6C9.2,55.8,3.8,61.3,3.8,68c0,3,1.1,5.7,2.8,7.8l0,0
	c-0.4,0.9-1.1,1.7-1.9,2.2l0,0C4.2,78.2,4,78.6,4,79c0,0.6,0.4,1,1,1.1l0,0c0.3,0,0.6,0.1,1,0.1l0,0l0,0c1.6,0,3.1-0.5,4.3-1.4l0,0
	c1.7,0.9,3.7,1.4,5.8,1.4c6.8,0,12.2-5.5,12.2-12.2C28.2,64.6,26.9,61.6,24.7,59.3L24.7,59.3L24.7,59.3z M23.7,75.7
	c-2,2-4.7,3.2-7.7,3.2c-2,0-3.9-0.6-5.5-1.5h0.1c-0.1-0.1-0.2-0.1-0.4-0.1s-0.4,0.1-0.5,0.2l0,0c0,0,0,0-0.1,0l0,0
	c-1,0.8-2.3,1.3-3.7,1.3l0,0c0.9-0.7,1.6-1.7,2.1-2.7l0,0c0-0.1,0.1-0.2,0.1-0.3c0-0.1,0-0.1,0-0.2l0,0c0-0.2-0.1-0.3-0.2-0.4l0,0
	c-1.7-1.9-2.7-4.4-2.7-7.2c0-6,4.9-10.8,10.8-10.8S26.8,62,26.8,68C26.8,71,25.6,73.7,23.7,75.7L23.7,75.7L23.7,75.7z"/>
<path class="st0" d="M16.9,68c0,0.5-0.4,0.9-0.9,0.9s-0.9-0.4-0.9-0.9s0.4-0.9,0.9-0.9l0,0C16.5,67.1,16.9,67.5,16.9,68L16.9,68z"/>
<path class="st0" d="M21.3,68c0,0.5-0.4,0.9-0.9,0.9s-0.9-0.4-0.9-0.9s0.4-0.9,0.9-0.9l0,0C20.9,67.1,21.3,67.5,21.3,68L21.3,68z"/>
<path class="st0" d="M12.4,68c0,0.5-0.4,0.9-0.9,0.9s-0.9-0.4-0.9-0.9s0.4-0.9,0.9-0.9l0,0C12,67.1,12.4,67.5,12.4,68L12.4,68z"/>
<path class="st1" d="M24.7,111.3c-2.2-2.2-5.3-3.6-8.6-3.6c-6.8,0-12.2,5.5-12.2,12.2c0,3,1.1,5.7,2.8,7.8l0,0
	c-0.4,0.9-1.1,1.7-1.9,2.2l0,0c-0.4,0.2-0.6,0.6-0.6,1c0,0.6,0.4,1,1,1.1l0,0c0.3,0,0.6,0.1,1,0.1l0,0l0,0c1.6,0,3.1-0.5,4.3-1.4
	l0,0c1.7,0.9,3.7,1.4,5.8,1.4c6.8,0,12.2-5.5,12.2-12.2C28.2,116.6,26.9,113.6,24.7,111.3L24.7,111.3z M23.7,127.7
	c-2,2-4.7,3.2-7.7,3.2c-2,0-3.9-0.6-5.5-1.5h0.1c-0.1-0.1-0.2-0.1-0.4-0.1s-0.4,0.1-0.5,0.2l0,0c0,0,0,0-0.1,0l0,0
	c-1,0.8-2.3,1.3-3.7,1.3l0,0c0.9-0.7,1.6-1.7,2.1-2.7l0,0c0-0.1,0.1-0.2,0.1-0.3c0-0.1,0-0.1,0-0.2l0,0c0-0.2-0.1-0.3-0.2-0.4l0,0
	c-1.7-1.9-2.7-4.4-2.7-7.2c0-6,4.9-10.8,10.8-10.8S26.8,114,26.8,120C26.8,123,25.6,125.7,23.7,127.7L23.7,127.7L23.7,127.7z"/>
<path class="st1" d="M16.9,120c0,0.5-0.4,0.9-0.9,0.9s-0.9-0.4-0.9-0.9s0.4-0.9,0.9-0.9l0,0C16.5,119.1,16.9,119.5,16.9,120
	L16.9,120z"/>
<path class="st1" d="M21.3,120c0,0.5-0.4,0.9-0.9,0.9s-0.9-0.4-0.9-0.9s0.4-0.9,0.9-0.9l0,0C20.9,119.1,21.3,119.5,21.3,120
	L21.3,120z"/>
<path class="st1" d="M12.4,120c0,0.5-0.4,0.9-0.9,0.9s-0.9-0.4-0.9-0.9s0.4-0.9,0.9-0.9l0,0C12,119.1,12.4,119.5,12.4,120L12.4,120z
	"/>
<path class="st0" d="M16,159.8c-6.8,0-12.2,5.5-12.2,12.2c0,6.8,5.5,12.2,12.2,12.2s12.2-5.5,12.2-12.2l0,0
	C28.2,165.2,22.8,159.8,16,159.8L16,159.8z M16,182.6c-5.9,0-10.6-4.8-10.6-10.6s4.8-10.6,10.6-10.6s10.6,4.8,10.6,10.6l0,0
	C26.6,177.9,21.9,182.6,16,182.6L16,182.6z"/>
<path class="st0" d="M16.8,171.3v-4.6c0.5,0.2,0.9,0.5,1.1,0.9l0,0c0.1,0.2,0.4,0.3,0.7,0.3c0.4,0,0.8-0.4,0.8-0.8
	c0-0.2,0-0.3-0.1-0.4l0,0c-0.6-0.9-1.4-1.5-2.5-1.7l0,0v-1.3c0-0.4-0.4-0.8-0.8-0.8s-0.8,0.3-0.8,0.8l0,0v1.3
	c-1.8,0.4-3.2,1.9-3.2,3.8s1.3,3.5,3.1,3.8l0,0v4.6c-0.5-0.2-0.9-0.5-1.1-0.9l0,0c-0.1-0.2-0.4-0.3-0.7-0.3c-0.4,0-0.8,0.4-0.8,0.8
	c0,0.2,0,0.3,0.1,0.4l0,0c0.6,0.9,1.4,1.5,2.5,1.7l0,0v1.3c0,0.4,0.4,0.8,0.8,0.8s0.8-0.3,0.8-0.8l0,0V179c1.8-0.4,3.2-1.9,3.2-3.8
	S18.6,171.6,16.8,171.3L16.8,171.3z M13.7,168.9c0-1,0.6-1.8,1.5-2.2l0,0v4.3C14.3,170.7,13.7,169.9,13.7,168.9L13.7,168.9
	L13.7,168.9z M16.8,177.3V173c0.9,0.3,1.5,1.2,1.5,2.2C18.3,176.1,17.7,177,16.8,177.3L16.8,177.3L16.8,177.3z"/>
<path class="st1" d="M16,211.8c-6.8,0-12.2,5.5-12.2,12.2c0,6.8,5.5,12.2,12.2,12.2s12.2-5.5,12.2-12.2l0,0
	C28.2,217.2,22.8,211.8,16,211.8L16,211.8z M16,234.6c-5.9,0-10.6-4.8-10.6-10.6s4.8-10.6,10.6-10.6s10.6,4.8,10.6,10.6l0,0
	C26.6,229.9,21.9,234.6,16,234.6L16,234.6z"/>
<path class="st1" d="M16.8,223.3v-4.6c0.5,0.2,0.9,0.5,1.1,0.9l0,0c0.1,0.2,0.4,0.3,0.7,0.3c0.4,0,0.8-0.4,0.8-0.8
	c0-0.2,0-0.3-0.1-0.4l0,0c-0.6-0.9-1.4-1.5-2.5-1.7l0,0v-1.3c0-0.4-0.4-0.8-0.8-0.8s-0.8,0.3-0.8,0.8l0,0v1.3
	c-1.8,0.4-3.2,1.9-3.2,3.8s1.3,3.5,3.1,3.8l0,0v4.6c-0.5-0.2-0.9-0.5-1.1-0.9l0,0c-0.1-0.2-0.4-0.3-0.7-0.3c-0.4,0-0.8,0.4-0.8,0.8
	c0,0.2,0,0.3,0.1,0.4l0,0c0.6,0.9,1.4,1.5,2.5,1.7l0,0v1.3c0,0.4,0.4,0.8,0.8,0.8s0.8-0.3,0.8-0.8l0,0V231c1.8-0.4,3.2-1.9,3.2-3.8
	S18.6,223.6,16.8,223.3L16.8,223.3z M13.7,220.9c0-1,0.6-1.8,1.5-2.2l0,0v4.3C14.3,222.7,13.7,221.9,13.7,220.9L13.7,220.9
	L13.7,220.9z M16.8,229.3V225c0.9,0.3,1.5,1.2,1.5,2.2C18.3,228.1,17.7,229,16.8,229.3L16.8,229.3L16.8,229.3z"/>
<path class="st2" d="M26.2,275.6h-4c0-1.9-0.3-3.8-0.8-5.6v0.2H24l0,0c0.2,0,0.4-0.2,0.4-0.4s-0.2-0.4-0.4-0.4l0,0l0,0h-2.8
	c-0.4-1.2-0.9-2.3-1.6-3.3l0,0c-0.1-0.1-0.2-0.1-0.3-0.1c-0.2,0-0.4,0.2-0.4,0.4c0,0.1,0,0.1,0.1,0.2l0,0c0.6,0.8,1,1.7,1.4,2.7v0.1
	h-4v-3.6c0-0.2-0.2-0.4-0.4-0.4s-0.4,0.2-0.4,0.4l0,0v3.6h-4c0.4-1.1,0.8-2,1.4-2.8l0,0c0-0.1,0.1-0.1,0.1-0.2
	c0-0.2-0.2-0.4-0.4-0.4c-0.1,0-0.2,0.1-0.3,0.1l0,0c-0.6,0.9-1.2,2-1.6,3.1v0.1H7.9l0,0c-0.2,0-0.4,0.2-0.4,0.4s0.2,0.4,0.4,0.4l0,0
	l0,0h2.6c-0.5,1.6-0.7,3.5-0.8,5.4l0,0h-4c-0.2,0-0.4,0.2-0.4,0.4s0.2,0.4,0.4,0.4l0,0h4c0,1.9,0.3,3.8,0.8,5.6v-0.2H7.9l0,0
	c-0.2,0-0.4,0.2-0.4,0.4s0.2,0.4,0.4,0.4l0,0l0,0h2.8c0.4,1.2,0.9,2.3,1.6,3.3l0,0c0.1,0.1,0.2,0.2,0.3,0.2c0.2,0,0.4-0.2,0.4-0.4
	c0-0.1,0-0.2-0.1-0.2l0,0c-0.6-0.8-1-1.7-1.4-2.7v-0.1h4v3.6l0,0c0,0.2,0.2,0.4,0.4,0.4c0.2,0,0.4-0.2,0.4-0.4l0,0l0,0v-3.6h4
	c-0.4,1.1-0.8,2-1.4,2.8l0,0c-0.1,0.1-0.1,0.1-0.1,0.2c0,0.2,0.2,0.4,0.4,0.4c0.1,0,0.3-0.1,0.3-0.2l0,0c0.6-0.9,1.2-2,1.6-3.1v-0.1
	h2.8c0.2,0,0.4-0.2,0.4-0.4s-0.2-0.4-0.4-0.4l0,0h-2.6c0.5-1.6,0.7-3.5,0.8-5.4l0,0h4c0.2,0,0.4-0.2,0.4-0.4
	C26.6,275.8,26.4,275.6,26.2,275.6L26.2,275.6L26.2,275.6z M20.6,270.2c0.5,1.6,0.8,3.5,0.8,5.4l0,0h-5.1v-5.5L20.6,270.2z
	 M11.3,270.2h4.3v5.5h-5.1c0-2,0.3-3.8,0.8-5.6V270.2L11.3,270.2z M11.3,281.8c-0.5-1.6-0.8-3.5-0.8-5.4l0,0h5.1v5.5h-4.3V281.8z
	 M20.6,281.8h-4.3v-5.5h5.1c0,2-0.3,3.8-0.8,5.6V281.8L20.6,281.8z"/>
<path class="st2" d="M24.5,267.5c-2.2-2.2-5.2-3.5-8.5-3.5c-6.6,0-12,5.4-12,12c0,2.5,0.7,4.7,2,6.6l0,0L4.5,287v0.1
	c0,0.2,0.2,0.4,0.4,0.4H5l0,0l4.4-1.5c1.9,1.2,4.1,2,6.6,2c6.6,0,12-5.4,12-12C28,272.7,26.7,269.7,24.5,267.5L24.5,267.5
	L24.5,267.5z M16,287.2L16,287.2c-2.4,0-4.6-0.7-6.4-2l0,0c-0.1,0-0.1-0.1-0.2-0.1H9.3l0,0l-3.8,1.3l1.3-3.9v-0.1
	c0-0.1,0-0.2-0.1-0.2l0,0c-1.2-1.8-2-4-2-6.3c0-6.2,5-11.2,11.2-11.2s11.2,5,11.2,11.2C27.2,282.2,22.2,287.2,16,287.2L16,287.2
	L16,287.2z"/>
<path class="st0" d="M26.4,327.6h-4.1c0-2-0.3-3.9-0.8-5.7v0.2h2.7l0,0c0.2,0,0.4-0.2,0.4-0.4s-0.2-0.4-0.4-0.4l0,0l0,0h-2.9
	c-0.4-1.3-1-2.4-1.6-3.3l0,0c-0.1-0.1-0.2-0.1-0.3-0.1c-0.2,0-0.4,0.2-0.4,0.4c0,0.1,0,0.2,0.1,0.2l0,0c0.6,0.8,1.1,1.8,1.4,2.8v0.1
	h-4.1v-3.6c0-0.2-0.2-0.4-0.4-0.4s-0.4,0.2-0.4,0.4l0,0v3.6h-4.1c0.4-1.1,0.9-2,1.4-2.9l0,0c0-0.1,0.1-0.1,0.1-0.2
	c0-0.2-0.2-0.4-0.4-0.4c-0.1,0-0.2,0.1-0.3,0.1l0,0c-0.7,0.9-1.2,2-1.6,3.2v0.1H7.8l0,0c-0.2,0-0.4,0.2-0.4,0.4s0.2,0.4,0.4,0.4l0,0
	l0,0h2.7c-0.5,1.7-0.8,3.6-0.8,5.6l0,0H5.6c-0.2,0-0.4,0.2-0.4,0.4c0,0.2,0.2,0.4,0.4,0.4l0,0h4.1c0,2,0.3,3.9,0.8,5.7V334H7.8l0,0
	c-0.2,0-0.4,0.2-0.4,0.4c0,0.2,0.2,0.4,0.4,0.4l0,0l0,0h2.9c0.4,1.3,0.9,2.4,1.6,3.3l0,0c0.1,0.1,0.2,0.2,0.3,0.2
	c0.2,0,0.4-0.2,0.4-0.4c0-0.1,0-0.2-0.1-0.2l0,0c-0.6-0.8-1.1-1.8-1.4-2.8v-0.1h4.1v3.6l0,0c0,0.2,0.2,0.4,0.4,0.4
	c0.2,0,0.4-0.2,0.4-0.4l0,0l0,0v-3.6h4.1c-0.4,1.1-0.9,2-1.4,2.9l0,0c-0.1,0.1-0.1,0.2-0.1,0.2c0,0.2,0.2,0.4,0.4,0.4
	c0.1,0,0.3-0.1,0.3-0.2l0,0c0.7-0.9,1.2-2,1.6-3.2v-0.1h2.9c0.2,0,0.4-0.2,0.4-0.4s-0.2-0.4-0.4-0.4l0,0h-2.7
	c0.5-1.7,0.8-3.6,0.8-5.5l0,0h4.1c0.2,0,0.4-0.2,0.4-0.4C26.8,327.8,26.6,327.6,26.4,327.6L26.4,327.6L26.4,327.6z M20.7,322
	c0.5,1.7,0.8,3.6,0.8,5.6l0,0h-5.2V322H20.7z M11.3,322h4.4v5.6h-5.2c0-2,0.3-3.9,0.8-5.7L11.3,322L11.3,322z M11.3,334
	c-0.5-1.7-0.8-3.6-0.8-5.6l0,0h5.2v5.6H11.3z M20.7,334h-4.4v-5.6h5.2c0,2-0.3,3.9-0.8,5.7V334L20.7,334z"/>
<path class="st0" d="M24.7,319.3c-2.2-2.2-5.3-3.6-8.7-3.6c-6.8,0-12.2,5.5-12.2,12.2c0,2.5,0.8,4.8,2,6.8l0,0l-1.5,4.5v0.1
	c0,0.2,0.2,0.4,0.4,0.4h0.1l0,0l4.5-1.5c1.9,1.3,4.2,2,6.7,2c6.8,0,12.2-5.5,12.2-12.2C28.2,324.6,26.9,321.6,24.7,319.3L24.7,319.3
	L24.7,319.3z M16,339.5L16,339.5c-2.4,0-4.7-0.7-6.5-2l0,0c-0.1,0-0.1-0.1-0.2-0.1H9.2l0,0l-3.9,1.3l1.3-3.9v-0.1
	c0-0.1,0-0.2-0.1-0.2l0,0c-1.2-1.8-2-4-2-6.5c0-6.3,5.1-11.5,11.5-11.5s11.5,5.1,11.5,11.5C27.5,334.3,22.3,339.5,16,339.5L16,339.5
	z"/>
<path class="st1" d="M26.4,379.6h-4.1c0-2-0.3-3.9-0.8-5.7v0.2h2.7l0,0c0.2,0,0.4-0.2,0.4-0.4s-0.2-0.4-0.4-0.4l0,0l0,0h-2.9
	c-0.4-1.3-1-2.4-1.6-3.3l0,0c-0.1-0.1-0.2-0.1-0.3-0.1c-0.2,0-0.4,0.2-0.4,0.4c0,0.1,0,0.2,0.1,0.2l0,0c0.6,0.8,1.1,1.8,1.4,2.8v0.1
	h-4.1v-3.6c0-0.2-0.2-0.4-0.4-0.4s-0.4,0.2-0.4,0.4l0,0v3.6h-4.1c0.4-1.1,0.9-2,1.4-2.9l0,0c0-0.1,0.1-0.1,0.1-0.2
	c0-0.2-0.2-0.4-0.4-0.4c-0.1,0-0.2,0.1-0.3,0.1l0,0c-0.7,0.9-1.2,2-1.6,3.2v0.1H7.8l0,0c-0.2,0-0.4,0.2-0.4,0.4s0.2,0.4,0.4,0.4l0,0
	l0,0h2.7c-0.5,1.7-0.8,3.6-0.8,5.6l0,0H5.6c-0.2,0-0.4,0.2-0.4,0.4c0,0.2,0.2,0.4,0.4,0.4l0,0h4.1c0,2,0.3,3.9,0.8,5.7V386H7.8l0,0
	c-0.2,0-0.4,0.2-0.4,0.4c0,0.2,0.2,0.4,0.4,0.4l0,0l0,0h2.9c0.4,1.3,0.9,2.4,1.6,3.3l0,0c0.1,0.1,0.2,0.2,0.3,0.2
	c0.2,0,0.4-0.2,0.4-0.4c0-0.1,0-0.2-0.1-0.2l0,0c-0.6-0.8-1.1-1.8-1.4-2.8v-0.1h4.1v3.6l0,0c0,0.2,0.2,0.4,0.4,0.4
	c0.2,0,0.4-0.2,0.4-0.4l0,0l0,0v-3.6h4.1c-0.4,1.1-0.9,2-1.4,2.9l0,0c-0.1,0.1-0.1,0.2-0.1,0.2c0,0.2,0.2,0.4,0.4,0.4
	c0.1,0,0.3-0.1,0.3-0.2l0,0c0.7-0.9,1.2-2,1.6-3.2v-0.1h2.9c0.2,0,0.4-0.2,0.4-0.4s-0.2-0.4-0.4-0.4l0,0h-2.7
	c0.5-1.7,0.8-3.6,0.8-5.5l0,0h4.1c0.2,0,0.4-0.2,0.4-0.4C26.8,379.8,26.6,379.6,26.4,379.6L26.4,379.6L26.4,379.6z M20.7,374
	c0.5,1.7,0.8,3.6,0.8,5.6l0,0h-5.2V374H20.7z M11.3,374h4.4v5.6h-5.2c0-2,0.3-3.9,0.8-5.7L11.3,374L11.3,374z M11.3,386
	c-0.5-1.7-0.8-3.6-0.8-5.6l0,0h5.2v5.6H11.3z M20.7,386h-4.4v-5.6h5.2c0,2-0.3,3.9-0.8,5.7V386L20.7,386z"/>
<path class="st1" d="M24.7,371.3c-2.2-2.2-5.3-3.6-8.7-3.6c-6.8,0-12.2,5.5-12.2,12.2c0,2.5,0.8,4.8,2,6.8l0,0l-1.5,4.5v0.1
	c0,0.2,0.2,0.4,0.4,0.4h0.1l0,0l4.5-1.5c1.9,1.3,4.2,2,6.7,2c6.8,0,12.2-5.5,12.2-12.2C28.2,376.6,26.9,373.6,24.7,371.3L24.7,371.3
	L24.7,371.3z M16,391.5L16,391.5c-2.4,0-4.7-0.7-6.5-2l0,0c-0.1,0-0.1-0.1-0.2-0.1H9.2l0,0l-3.9,1.3l1.3-3.9v-0.1
	c0-0.1,0-0.2-0.1-0.2l0,0c-1.2-1.8-2-4-2-6.5c0-6.3,5.1-11.5,11.5-11.5s11.5,5.1,11.5,11.5C27.5,386.3,22.3,391.5,16,391.5L16,391.5
	z"/>
<path class="st3" d="M5.6,437.1L5.6,437.1c-0.1,0-0.2,0-0.2,0.1l0,0c-0.1,0.1-0.1,0.1-0.1,0.2l0,0l0,0v1.9l0,0c0,0.1,0,0.2,0.1,0.2
	l0,0c0.1,0.1,0.1,0.1,0.2,0.1l0,0l0,0h20.8l0,0c0.1,0,0.2,0,0.2-0.1l0,0c0.1-0.1,0.1-0.1,0.1-0.2l0,0l0,0v-1.9l0,0
	c0-0.1,0-0.2-0.1-0.2l0,0c-0.1-0.1-0.1-0.1-0.2-0.1l0,0l0,0H5.6z M5.6,430.7c-0.2,0-0.3,0.1-0.3,0.3l0,0v1.9c0,0.2,0.1,0.3,0.3,0.3
	l0,0h20.8c0.2,0,0.3-0.1,0.3-0.3l0,0V431c0-0.2-0.1-0.3-0.3-0.3l0,0H5.6z M5.6,424.4c-0.2,0-0.3,0.1-0.3,0.3l0,0v1.9l0,0
	c0,0.1,0,0.2,0.1,0.2l0,0c0.1,0.1,0.1,0.1,0.2,0.1l0,0l0,0h20.8l0,0c0.1,0,0.2,0,0.2-0.1l0,0c0.1-0.1,0.1-0.1,0.1-0.2l0,0l0,0v-1.9
	c0-0.2-0.1-0.3-0.3-0.3l0,0H5.6z"/>
<path class="st2" d="M5.6,489.1L5.6,489.1c-0.1,0-0.2,0-0.2,0.1l0,0c-0.1,0.1-0.1,0.1-0.1,0.2l0,0l0,0v1.9l0,0c0,0.1,0,0.2,0.1,0.2
	l0,0c0.1,0.1,0.1,0.1,0.2,0.1l0,0l0,0h20.8l0,0c0.1,0,0.2,0,0.2-0.1l0,0c0.1-0.1,0.1-0.1,0.1-0.2l0,0l0,0v-1.9l0,0
	c0-0.1,0-0.2-0.1-0.2l0,0c-0.1-0.1-0.1-0.1-0.2-0.1l0,0l0,0H5.6z M5.6,482.7c-0.2,0-0.3,0.1-0.3,0.3l0,0v1.9c0,0.2,0.1,0.3,0.3,0.3
	l0,0h20.8c0.2,0,0.3-0.1,0.3-0.3l0,0V483c0-0.2-0.1-0.3-0.3-0.3l0,0H5.6z M5.6,476.4c-0.2,0-0.3,0.1-0.3,0.3l0,0v1.9l0,0
	c0,0.1,0,0.2,0.1,0.2l0,0c0.1,0.1,0.1,0.1,0.2,0.1l0,0l0,0h20.8l0,0c0.1,0,0.2,0,0.2-0.1l0,0c0.1-0.1,0.1-0.1,0.1-0.2l0,0l0,0v-1.9
	c0-0.2-0.1-0.3-0.3-0.3l0,0H5.6z"/>
<path class="st0" d="M23,530.8L23,530.8c0,1.4-0.4,2.7-1.1,3.7l0,0c0.5,0.1,0.9,0.3,1.3,0.5l0,0c0.5,0.3,0.9,0.6,1.2,1l0,0
	c0.4,0.5,0.8,1,1.1,1.5l0,0c0.3,0.7,0.6,1.5,0.7,2.3v0.1c0.2,0.9,0.3,2,0.3,3.1c0,0.1,0,0.1,0,0.2l0,0v0.1c0,1.4-0.5,2.6-1.4,3.5
	l0,0c-0.8,0.9-2,1.5-3.3,1.5l0,0H10.2l0,0c-1.3,0-2.5-0.6-3.3-1.5l0,0c-0.8-0.9-1.4-2.1-1.4-3.5v-0.1l0,0c0,0,0-0.1,0-0.2
	c0-1.1,0.1-2.2,0.3-3.2v0.1c0.2-0.9,0.4-1.7,0.8-2.4v0.1c0.3-0.6,0.7-1.1,1.1-1.6l0,0c0.4-0.4,0.8-0.7,1.2-1l0,0
	c0.4-0.2,0.8-0.4,1.2-0.5l0,0c-0.7-1.1-1.1-2.3-1.1-3.7c0-1,0.2-1.9,0.6-2.8l0,0c0.7-1.7,2-3,3.7-3.7l0,0c0.8-0.3,1.7-0.6,2.7-0.6
	s1.9,0.2,2.8,0.6l0,0c1.7,0.7,3,2,3.7,3.7l0,0C22.8,528.8,23,529.8,23,530.8C23,530.7,23,530.7,23,530.8L23,530.8L23,530.8z
	 M21.8,546.5L21.8,546.5c0.8,0,1.6-0.4,2.1-1l0,0c0.5-0.6,0.9-1.4,0.9-2.3v-0.1l0,0c0-0.2,0-0.3,0-0.5c0-1.7-0.4-3.3-1.1-4.7v0.1
	c-0.6-1.1-1.7-1.9-3.1-2l0,0c-1.2,1.1-2.8,1.7-4.6,1.7s-3.4-0.7-4.6-1.7l0,0c-1.3,0-2.5,0.8-3.1,2l0,0c-0.7,1.4-1.1,2.9-1.1,4.6
	c0,0.2,0,0.4,0,0.5l0,0v0.1c0,0.9,0.3,1.7,0.9,2.3l0,0c0.5,0.6,1.2,1,2.1,1l0,0l0,0L21.8,546.5z M19.7,527c-1-0.9-2.3-1.5-3.7-1.5
	c-2.9,0-5.3,2.4-5.3,5.3c0,2.9,2.4,5.3,5.3,5.3s5.3-2.4,5.3-5.3l0,0l0,0v-0.1C21.3,529.2,20.7,528,19.7,527L19.7,527L19.7,527z"/>
<path class="st1" d="M23,582.8L23,582.8c0,1.4-0.4,2.7-1.1,3.7l0,0c0.5,0.1,0.9,0.3,1.3,0.5l0,0c0.5,0.3,0.9,0.6,1.2,1l0,0
	c0.4,0.5,0.8,1,1.1,1.5l0,0c0.3,0.7,0.6,1.5,0.7,2.3v0.1c0.2,0.9,0.3,2,0.3,3.1c0,0.1,0,0.1,0,0.2l0,0v0.1c0,1.4-0.5,2.6-1.4,3.5
	l0,0c-0.8,0.9-2,1.5-3.3,1.5l0,0H10.2l0,0c-1.3,0-2.5-0.6-3.3-1.5l0,0c-0.8-0.9-1.4-2.1-1.4-3.5v-0.1l0,0c0,0,0-0.1,0-0.2
	c0-1.1,0.1-2.2,0.3-3.2v0.1c0.2-0.9,0.4-1.7,0.8-2.4v0.1c0.3-0.6,0.7-1.1,1.1-1.6l0,0c0.4-0.4,0.8-0.7,1.2-1l0,0
	c0.4-0.2,0.8-0.4,1.2-0.5l0,0c-0.7-1.1-1.1-2.3-1.1-3.7c0-1,0.2-1.9,0.6-2.8l0,0c0.7-1.7,2-3,3.7-3.7l0,0c0.8-0.3,1.7-0.6,2.7-0.6
	s1.9,0.2,2.8,0.6l0,0c1.7,0.7,3,2,3.7,3.7l0,0C22.8,580.8,23,581.8,23,582.8C23,582.7,23,582.7,23,582.8L23,582.8L23,582.8z
	 M21.8,598.5L21.8,598.5c0.8,0,1.6-0.4,2.1-1l0,0c0.5-0.6,0.9-1.4,0.9-2.3v-0.1l0,0c0-0.2,0-0.3,0-0.5c0-1.7-0.4-3.3-1.1-4.7v0.1
	c-0.6-1.1-1.7-1.9-3.1-2l0,0c-1.2,1.1-2.8,1.7-4.6,1.7s-3.4-0.7-4.6-1.7l0,0c-1.3,0-2.5,0.8-3.1,2l0,0c-0.7,1.4-1.1,2.9-1.1,4.6
	c0,0.2,0,0.4,0,0.5l0,0v0.1c0,0.9,0.3,1.7,0.9,2.3l0,0c0.5,0.6,1.2,1,2.1,1l0,0l0,0L21.8,598.5z M19.7,579c-1-0.9-2.3-1.5-3.7-1.5
	c-2.9,0-5.3,2.4-5.3,5.3c0,2.9,2.4,5.3,5.3,5.3s5.3-2.4,5.3-5.3l0,0l0,0v-0.1C21.3,581.2,20.7,580,19.7,579L19.7,579L19.7,579z"/>
<path d="M27.2,631.4v2.2H9.9v-2.2H27.2z M7,631.4v2.2H4.8v-2.2H7z M27.2,636.4v2.2H9.9v-2.2H27.2z M7,636.4v2.2H4.8v-2.2H7z
	 M27.2,641.4v2.2H9.9v-2.2H27.2z M7,641.4v2.2H4.8v-2.2H7z M27.2,646.5v2.2H9.9v-2.2H27.2L27.2,646.5z M7,646.5v2.2H4.8v-2.2H7z"/>
<path class="st4" d="M27.2,683.4v2.2H9.9v-2.2H27.2 M7,683.4v2.2H4.8v-2.2H7 M27.2,688.4v2.2H9.9v-2.2H27.2 M7,688.4v2.2H4.8v-2.2H7
	 M27.2,693.4v2.2H9.9v-2.2H27.2 M7,693.4v2.2H4.8v-2.2H7 M27.2,698.5v2.2H9.9v-2.2H27.2 M7,698.5v2.2H4.8v-2.2H7"/>
<path class="st5" d="M27.2,735.4v2.2H9.9v-2.2H27.2 M7,735.4v2.2H4.8v-2.2H7 M27.2,740.4v2.2H9.9v-2.2H27.2 M7,740.4v2.2H4.8v-2.2H7
	 M27.2,745.4v2.2H9.9v-2.2H27.2 M7,745.4v2.2H4.8v-2.2H7 M27.2,750.5v2.2H9.9v-2.2H27.2 M7,750.5v2.2H4.8v-2.2H7"/>
<path class="st6" d="M5,808l5.9-6c1.8,1.6,4.2,2.6,6.9,2.6c5.8,0,10.4-4.7,10.4-10.4s-4.7-10.4-10.4-10.4s-10.4,4.7-10.4,10.4
	c0,2.6,1,5,2.6,6.9l0,0l-6,6c-0.1,0.1-0.2,0.3-0.2,0.5l0,0l0,0c0,0.2,0.1,0.4,0.2,0.5l0,0c0.1,0.1,0.3,0.2,0.5,0.2S4.9,808.2,5,808
	L5,808L5,808z M17.8,785.2c5,0,9,4,9,9s-4,9-9,9s-9-4-9-9l0,0C8.8,789.2,12.8,785.2,17.8,785.2L17.8,785.2z"/>
<path class="st2" d="M5,860l5.9-6c1.8,1.6,4.2,2.6,6.9,2.6c5.8,0,10.4-4.7,10.4-10.4s-4.7-10.4-10.4-10.4s-10.4,4.7-10.4,10.4
	c0,2.6,1,5,2.6,6.9l0,0l-6,6c-0.1,0.1-0.2,0.3-0.2,0.5l0,0l0,0c0,0.2,0.1,0.4,0.2,0.5l0,0c0.1,0.1,0.3,0.2,0.5,0.2S4.9,860.2,5,860
	L5,860L5,860z M17.8,837.2c5,0,9,4,9,9s-4,9-9,9s-9-4-9-9l0,0C8.8,841.2,12.8,837.2,17.8,837.2L17.8,837.2z"/>
<path d="M11.2,903.8h13.2c1.5,0,2.7-1.2,2.7-2.7v-5.6l0,0l0,0l0,0l0,0l0,0l0,0l0,0l0,0l0,0l0,0l0,0l0,0l0,0l0,0l0,0l0,0l0,0l0,0l0,0
	l0,0l0,0l0,0l0,0l0,0l0,0l0,0l0,0H27l0,0l0,0l0,0l0,0l0,0l0,0l0,0l0,0l0,0l0,0l-16.7-2.3v-2.3l0,0l0,0l0,0l0,0l0,0l0,0l0,0l0,0l0,0
	l0,0l0,0l0,0l0,0l0,0l0,0l0,0l0,0l0,0l0,0l-0.1-0.1l0,0l0,0l0,0l0,0l0,0l0,0l0,0h-0.1l-3.6-1.5c-0.8-1.3-0.9-1.3-1-1.3
	c-0.4,0-0.7,0.3-0.7,0.7c0,0.3,0.2,0.6,0.5,0.6l0,0l3.2,1.4v14.6c0,1.4,1,2.5,2.4,2.7l0,0c-0.2,0.4-0.4,0.9-0.4,1.4
	c0,1.5,1.2,2.7,2.7,2.7s2.7-1.2,2.7-2.7l0,0l0,0l0,0c0-0.5-0.1-1-0.4-1.4l0,0h6c-0.2,0.4-0.4,0.9-0.4,1.3l0,0l0,0
	c0,1.5,1.2,2.7,2.7,2.7s2.7-1.2,2.7-2.7s-1.2-2.7-2.7-2.7l0,0H11.2c-0.8,0-1.4-0.6-1.4-1.4v-1.8C10.3,903.7,10.7,903.8,11.2,903.8
	L11.2,903.8L11.2,903.8L11.2,903.8z M14.6,909.3c0,0.7-0.6,1.4-1.4,1.4s-1.4-0.6-1.4-1.4s0.6-1.4,1.4-1.4l0,0
	C13.9,908,14.6,908.6,14.6,909.3L14.6,909.3L14.6,909.3z M25.2,909.3c0,0.7-0.6,1.4-1.4,1.4s-1.4-0.6-1.4-1.4s0.6-1.4,1.4-1.4l0,0
	C24.6,908,25.2,908.6,25.2,909.3L25.2,909.3L25.2,909.3z M24.5,902.5H11.2c-0.8,0-1.4-0.6-1.4-1.4v-7.2l16,2.2v5l0,0
	C25.8,901.9,25.2,902.5,24.5,902.5L24.5,902.5L24.5,902.5z"/>
<path class="st0" d="M11.1,955.9h13.5c1.5,0,2.8-1.2,2.8-2.8v-5.7l0,0l0,0l0,0l0,0l0,0l0,0l0,0l0,0l0,0l0,0l0,0l0,0l0,0l0,0l0,0l0,0
	l0,0l0,0l0,0l0,0l0,0l0,0l0,0l0,0l0,0l0,0l0,0h-0.1l0,0l0,0l0,0l0,0l0,0l0,0l0,0l0,0l0,0l0,0L10.2,945v-3l0,0l0,0l0,0l0,0l0,0l0,0
	l0,0l0,0l0,0l0,0l0,0l0,0l0,0l0,0l0,0l0,0l0,0l0,0l0,0l-0.1-0.1l0,0l0,0l0,0l0,0l0,0l0,0l0,0H10l-3.7-1.6c-0.1-0.1-0.2-0.1-0.3-0.1
	c-0.4,0-0.7,0.3-0.7,0.7c0,0.3,0.2,0.6,0.5,0.7l0,0l3.3,1.4v14.9c0,1.4,1.1,2.6,2.4,2.7l0,0c-0.2,0.4-0.4,0.9-0.4,1.4
	c0,1.5,1.2,2.7,2.7,2.7s2.7-1.2,2.7-2.7l0,0l0,0l0,0c0-0.5-0.1-1-0.4-1.4l0,0h6.1c-0.2,0.4-0.4,0.9-0.4,1.4l0,0l0,0
	c0,1.5,1.2,2.7,2.7,2.7s2.7-1.2,2.7-2.7s-1.2-2.7-2.7-2.7l0,0H11.1c-0.8,0-1.4-0.6-1.4-1.4v-1.8C10.1,955.7,10.6,955.9,11.1,955.9
	L11.1,955.9L11.1,955.9L11.1,955.9z M14.5,961.5c0,0.8-0.6,1.4-1.4,1.4s-1.4-0.6-1.4-1.4c0-0.8,0.6-1.4,1.4-1.4l0,0
	C13.9,960.1,14.5,960.7,14.5,961.5L14.5,961.5L14.5,961.5z M25.4,961.5c0,0.8-0.6,1.4-1.4,1.4s-1.4-0.6-1.4-1.4
	c0-0.8,0.6-1.4,1.4-1.4l0,0C24.7,960.1,25.4,960.7,25.4,961.5L25.4,961.5L25.4,961.5z M24.6,954.5H11.1c-0.8,0-1.4-0.6-1.4-1.4v-7.3
	L26,948v5.1l0,0C26,953.9,25.4,954.5,24.6,954.5L24.6,954.5L24.6,954.5z"/>
<path class="st1" d="M11.2,1007.9h13.5c1.5,0,2.8-1.2,2.8-2.8v-5.7l0,0l0,0l0,0l0,0l0,0l0,0l0,0l0,0l0,0l0,0l0,0l0,0l0,0l0,0l0,0
	l0,0l0,0l0,0l0,0l0,0l0,0l0,0l0,0l0,0l0,0l0,0l0,0h-0.1l0,0l0,0l0,0l0,0l0,0l0,0l0,0l0,0l0,0l0,0L10.3,997v-3l0,0l0,0l0,0l0,0l0,0
	l0,0l0,0l0,0l0,0l0,0l0,0l0,0l0,0l0,0l0,0l0,0l0,0l0,0l0,0l-0.1-0.1l0,0l0,0l0,0l0,0l0,0l0,0l0,0h-0.1l-3.7-1.6
	c-0.1-0.1-0.2-0.1-0.3-0.1c-0.4,0-0.7,0.3-0.7,0.7c0,0.3,0.2,0.6,0.5,0.7l0,0l3.3,1.4v14.8c0,1.4,1,2.6,2.4,2.7l0,0
	c-0.2,0.4-0.4,0.9-0.4,1.4c0,1.5,1.2,2.7,2.7,2.7s2.7-1.2,2.7-2.7l0,0l0,0l0,0c0-0.5-0.1-1-0.4-1.4l0,0h6.1
	c-0.2,0.4-0.4,0.9-0.4,1.4l0,0l0,0c0,1.5,1.2,2.7,2.7,2.7s2.7-1.2,2.7-2.7s-1.2-2.7-2.7-2.7l0,0H11.1c-0.8,0-1.4-0.6-1.4-1.4v-1.8
	C10.1,1007.7,10.6,1007.9,11.2,1007.9C11.1,1007.9,11.1,1007.9,11.2,1007.9L11.2,1007.9L11.2,1007.9z M14.5,1013.5
	c0,0.8-0.6,1.4-1.4,1.4s-1.4-0.6-1.4-1.4c0-0.8,0.6-1.4,1.4-1.4l0,0C13.9,1012.1,14.5,1012.7,14.5,1013.5L14.5,1013.5L14.5,1013.5z
	 M25.3,1013.5c0,0.8-0.6,1.4-1.4,1.4s-1.4-0.6-1.4-1.4c0-0.8,0.6-1.4,1.4-1.4l0,0C24.7,1012.1,25.3,1012.7,25.3,1013.5L25.3,1013.5
	L25.3,1013.5z M24.6,1006.5H11.2c-0.8,0-1.4-0.6-1.4-1.4v-7.3L26,1000v5.1l0,0C26,1005.9,25.4,1006.5,24.6,1006.5L24.6,1006.5
	L24.6,1006.5z"/>
<path class="st3" d="M23.3,1050.7C23.3,1050.8,23.3,1050.8,23.3,1050.7c0,1.4-0.4,2.7-1.1,3.7l0,0c0.5,0.1,0.9,0.3,1.3,0.5l0,0
	c0.5,0.3,0.9,0.6,1.3,1l0,0c0.4,0.5,0.8,1,1.1,1.5l0,0c0.3,0.7,0.6,1.5,0.8,2.3v0.1c0.2,0.9,0.3,2,0.3,3.1c0,0.1,0,0.1,0,0.2l0,0
	v0.1c0,1.4-0.5,2.6-1.4,3.5l0,0c-0.8,0.9-2.1,1.5-3.4,1.5c0,0,0,0-0.1,0l0,0H9.9c0,0,0,0-0.1,0c-1.3,0-2.6-0.6-3.4-1.5l0,0
	c-0.9-0.9-1.4-2.1-1.4-3.5v-0.1l0,0v-0.1c0-1.1,0.1-2.2,0.3-3.2v0.1c0.2-0.9,0.4-1.7,0.8-2.4v0.1c0.3-0.6,0.7-1.1,1.1-1.6l0,0
	c0.4-0.4,0.8-0.7,1.3-1l0,0c0.4-0.2,0.8-0.4,1.2-0.5l0,0c-0.7-1-1.1-2.3-1.1-3.7c0-1,0.2-1.9,0.6-2.8l0,0c0.4-0.9,0.9-1.6,1.6-2.2
	l0,0c1.4-1.3,3.2-2.1,5.2-2.1s3.8,0.8,5.2,2.1l0,0c0.6,0.6,1.2,1.4,1.6,2.2l0,0C23.1,1048.8,23.3,1049.8,23.3,1050.7L23.3,1050.7
	L23.3,1050.7L23.3,1050.7z M22.1,1066.5L22.1,1066.5c0.9,0,1.6-0.4,2.2-1l0,0c0.6-0.6,0.9-1.4,0.9-2.3v-0.1l0,0c0-0.2,0-0.3,0-0.5
	c0-1.7-0.4-3.3-1.2-4.7v0.1c-0.6-1.2-1.8-1.9-3.2-2l0,0c-1.3,1.1-3,1.7-4.8,1.7s-3.5-0.7-4.8-1.7l0,0c-1.4,0-2.6,0.8-3.2,2l0,0
	c-0.7,1.3-1.1,2.9-1.1,4.6c0,0.2,0,0.4,0,0.5l0,0c0,0,0,0,0,0.1c0,0.9,0.3,1.7,0.9,2.3l0,0c0.5,0.6,1.3,1,2.1,1l0,0l0,0H22.1z
	 M19.9,1047c-1-1-2.4-1.5-3.9-1.5s-2.9,0.6-3.9,1.5l0,0c-1,0.9-1.6,2.2-1.6,3.7s0.6,2.8,1.6,3.7l0,0c1,1,2.4,1.5,3.9,1.5
	s2.9-0.6,3.9-1.5l0,0c1-0.9,1.6-2.2,1.6-3.7S20.9,1048,19.9,1047L19.9,1047L19.9,1047z"/>
<path class="st2" d="M23.3,1102.8L23.3,1102.8c0,1.4-0.4,2.7-1.1,3.7l0,0c0.5,0.1,0.9,0.3,1.3,0.5l0,0c0.5,0.3,0.9,0.6,1.3,1l0,0
	c0.4,0.5,0.8,1,1.1,1.5l0,0c0.3,0.7,0.6,1.5,0.8,2.3v0.1c0.2,0.9,0.3,2,0.3,3.1c0,0.1,0,0.1,0,0.2l0,0v0.1c0,1.4-0.5,2.6-1.4,3.5
	l0,0c-0.8,0.9-2.1,1.5-3.4,1.5c0,0,0,0-0.1,0l0,0H9.9c0,0,0,0-0.1,0c-1.3,0-2.6-0.6-3.4-1.5l0,0c-0.9-0.9-1.4-2.1-1.4-3.5v-0.1l0,0
	v-0.1c0-1.1,0.1-2.2,0.3-3.2v0.1c0.2-0.9,0.4-1.7,0.8-2.4v0.1c0.3-0.6,0.7-1.1,1.1-1.6l0,0c0.4-0.4,0.8-0.7,1.3-1l0,0
	c0.4-0.2,0.8-0.4,1.2-0.5l0,0c-0.7-1-1.1-2.3-1.1-3.7c0-1,0.2-1.9,0.6-2.8l0,0c0.4-0.9,0.9-1.6,1.6-2.2l0,0c1.4-1.3,3.2-2.1,5.2-2.1
	s3.8,0.8,5.2,2.1l0,0c0.6,0.6,1.2,1.4,1.6,2.2l0,0C23.1,1100.8,23.3,1101.8,23.3,1102.8C23.3,1102.7,23.3,1102.7,23.3,1102.8
	L23.3,1102.8L23.3,1102.8z M22.1,1118.5L22.1,1118.5c0.9,0,1.6-0.4,2.2-1l0,0c0.6-0.6,0.9-1.4,0.9-2.3v-0.1l0,0c0-0.2,0-0.3,0-0.5
	c0-1.7-0.4-3.3-1.2-4.7v0.1c-0.6-1.2-1.8-1.9-3.2-2l0,0c-1.3,1.1-3,1.7-4.8,1.7s-3.5-0.7-4.8-1.7l0,0c-1.4,0-2.6,0.8-3.2,2l0,0
	c-0.7,1.3-1.1,2.9-1.1,4.6c0,0.2,0,0.4,0,0.5l0,0c0,0,0,0,0,0.1c0,0.9,0.3,1.7,0.9,2.3l0,0c0.5,0.6,1.3,1,2.1,1l0,0l0,0H22.1z
	 M19.9,1099c-1-1-2.4-1.5-3.9-1.5s-2.9,0.6-3.9,1.5l0,0c-1,0.9-1.6,2.2-1.6,3.7s0.6,2.8,1.6,3.7l0,0c1,1,2.4,1.5,3.9,1.5
	s2.9-0.6,3.9-1.5l0,0c1-0.9,1.6-2.2,1.6-3.7S20.9,1100,19.9,1099L19.9,1099L19.9,1099z"/>
<path class="st0" d="M14.8,1164.9c-0.1,0.1-0.1,0.2-0.1,0.3c0,0.2,0.2,0.4,0.4,0.4c0.1,0,0.2-0.1,0.3-0.1l0,0l5.2-5.2l0.1-0.1l0,0
	c0,0,0-0.1,0-0.2s0-0.1,0-0.2l0,0c0-0.1-0.1-0.1-0.1-0.1l-5.2-5.2c-0.1-0.1-0.2-0.1-0.3-0.1c-0.2,0-0.4,0.2-0.4,0.4
	c0,0.1,0,0.2,0.1,0.3l0,0l4.5,4.5H5.9l0,0c-0.2,0-0.4,0.2-0.4,0.4s0.2,0.4,0.4,0.4l0,0l0,0h13.4L14.8,1164.9z"/>
<path class="st0" d="M26.1,1147.7H9.9l0,0c-0.2,0-0.4,0.2-0.4,0.4l0,0l0,0v9.2c0,0.2,0.2,0.4,0.4,0.4s0.4-0.2,0.4-0.4l0,0v-8.8h15.3
	v22.8H10.3v-8.8c0-0.2-0.2-0.4-0.4-0.4s-0.4,0.2-0.4,0.4l0,0v9.2l0,0c0,0.2,0.2,0.4,0.4,0.4l0,0h16.2l0,0c0.2,0,0.4-0.2,0.4-0.4l0,0
	l0,0v-23.6l0,0C26.5,1147.9,26.3,1147.8,26.1,1147.7L26.1,1147.7L26.1,1147.7L26.1,1147.7z"/>
<path class="st1" d="M14.8,1216.9c-0.1,0.1-0.1,0.2-0.1,0.3c0,0.2,0.2,0.4,0.4,0.4c0.1,0,0.2-0.1,0.3-0.1l0,0l5.2-5.2l0.1-0.1l0,0
	c0,0,0-0.1,0-0.2s0-0.1,0-0.2l0,0c0-0.1-0.1-0.1-0.1-0.1l-5.2-5.2c-0.1-0.1-0.2-0.1-0.3-0.1c-0.2,0-0.4,0.2-0.4,0.4
	c0,0.1,0,0.2,0.1,0.3l0,0l4.5,4.5H5.9l0,0c-0.2,0-0.4,0.2-0.4,0.4s0.2,0.4,0.4,0.4l0,0l0,0h13.4L14.8,1216.9z"/>
<path class="st1" d="M26.1,1199.7H9.9l0,0c-0.2,0-0.4,0.2-0.4,0.4l0,0l0,0v9.2c0,0.2,0.2,0.4,0.4,0.4s0.4-0.2,0.4-0.4l0,0v-8.8h15.3
	v22.8H10.3v-8.8c0-0.2-0.2-0.4-0.4-0.4s-0.4,0.2-0.4,0.4l0,0v9.2l0,0c0,0.2,0.2,0.4,0.4,0.4l0,0h16.2l0,0c0.2,0,0.4-0.2,0.4-0.4l0,0
	l0,0v-23.6l0,0C26.5,1199.9,26.3,1199.8,26.1,1199.7L26.1,1199.7L26.1,1199.7L26.1,1199.7z"/>
<path class="st0" d="M9.4,1259.7c0.1-0.1,0.1-0.2,0.1-0.3c0-0.2-0.2-0.4-0.4-0.4c-0.1,0-0.2,0-0.3,0.1l-4.5,4.5l-0.1,0.1l0,0v0.1
	v0.1l0,0c0,0,0,0.1,0.1,0.1l4.5,4.5c0.1,0.1,0.2,0.1,0.3,0.1c0.2,0,0.4-0.2,0.4-0.4c0-0.1,0-0.2-0.1-0.3l-3.9-3.9h16.4l0,0
	c0.2,0,0.4-0.2,0.4-0.4l0,0l0,0l0,0c0-0.2-0.2-0.4-0.4-0.4l0,0H5.5L9.4,1259.7z"/>
<path class="st0" d="M27.4,1253.4h-14l0,0c-0.2,0-0.4,0.2-0.4,0.4l0,0l0,0v8c0,0.2,0.2,0.4,0.4,0.4s0.4-0.2,0.4-0.4l0,0v-7.6h13.3
	v19.7H13.8v-7.6c0-0.2-0.2-0.4-0.4-0.4s-0.4,0.2-0.4,0.4l0,0v8l0,0c0,0.2,0.2,0.4,0.4,0.4l0,0h14l0,0c0.2,0,0.4-0.2,0.4-0.4l0,0l0,0
	v-20.5l0,0C27.8,1253.6,27.7,1253.4,27.4,1253.4L27.4,1253.4L27.4,1253.4L27.4,1253.4z"/>
<path class="st1" d="M9.4,1311.7c0.1-0.1,0.1-0.2,0.1-0.3c0-0.2-0.2-0.4-0.4-0.4c-0.1,0-0.2,0-0.3,0.1l-4.5,4.5l-0.1,0.1l0,0v0.1
	v0.1l0,0c0,0,0,0.1,0.1,0.1l4.5,4.5c0.1,0.1,0.2,0.1,0.3,0.1c0.2,0,0.4-0.2,0.4-0.4c0-0.1,0-0.2-0.1-0.3l-3.9-3.9h16.4l0,0
	c0.2,0,0.4-0.2,0.4-0.4l0,0l0,0l0,0c0-0.2-0.2-0.4-0.4-0.4l0,0H5.5L9.4,1311.7z"/>
<path class="st1" d="M27.4,1305.4h-14l0,0c-0.2,0-0.4,0.2-0.4,0.4l0,0l0,0v8c0,0.2,0.2,0.4,0.4,0.4s0.4-0.2,0.4-0.4l0,0v-7.6h13.3
	v19.7H13.8v-7.6c0-0.2-0.2-0.4-0.4-0.4s-0.4,0.2-0.4,0.4l0,0v8l0,0c0,0.2,0.2,0.4,0.4,0.4l0,0h14l0,0c0.2,0,0.4-0.2,0.4-0.4l0,0l0,0
	v-20.5l0,0C27.8,1305.6,27.7,1305.4,27.4,1305.4L27.4,1305.4L27.4,1305.4L27.4,1305.4z"/>
<g id="Top_1x_Red" transform="translate(-1453.833 63.509)">
	<g id="Group_242" transform="translate(1454.333 -63.009)">
		<g id="Group_240">
			<path id="Path_613" class="st7" d="M15.6,1535.5c-6.5,0-11.7-5.3-11.7-11.8s5.3-11.8,11.7-11.8s11.7,5.3,11.7,11.8
				S22.1,1535.5,15.6,1535.5z M15.6,1512.2c-6.3,0-11.4,5.1-11.4,11.4s5.1,11.4,11.4,11.4s11.4-5.1,11.4-11.4l0,0
				C26.9,1517.4,21.9,1512.2,15.6,1512.2z"/>
		</g>
		<g id="Group_241" transform="translate(4.002 7.345)">
			<path id="Path_614" class="st7" d="M4.6,1517.8l6.2-4.4c0.6-0.3,1.2-0.3,1.8,0l5.9,4.4c0.3,0.2-0.2,0.8-0.6,0.3l-5.2-3.9
				c-0.6-0.4-1.4-0.4-1.9,0l-5.5,3.9C4.8,1518.6,4.4,1518,4.6,1517.8z"/>
		</g>
	</g>
</g>
<g id="Top_1x_Red_1_" transform="translate(-1453.833 63.509)">
	<g id="Group_242_1_" transform="translate(1454.333 -63.009)">
		<g id="Group_240_1_">
			<path id="Path_613_1_" class="st8" d="M15.5,1483.5c-6.5,0-11.7-5.3-11.7-11.8s5.3-11.8,11.7-11.8s11.7,5.3,11.7,11.8
				S22,1483.5,15.5,1483.5z M15.5,1460.2c-6.3,0-11.4,5.1-11.4,11.4s5.1,11.4,11.4,11.4s11.4-5.1,11.4-11.4l0,0
				C26.9,1465.4,21.8,1460.2,15.5,1460.2z"/>
		</g>
		<g id="Group_241_1_" transform="translate(4.002 7.345)">
			<path id="Path_614_1_" class="st8" d="M4.5,1465.8l6.2-4.4c0.6-0.3,1.2-0.3,1.8,0l5.9,4.4c0.3,0.2-0.2,0.8-0.6,0.3l-5.2-3.9
				c-0.6-0.4-1.4-0.4-1.9,0l-5.5,3.9C4.7,1466.6,4.3,1466,4.5,1465.8z"/>
		</g>
	</g>
</g>
<g id="Tools_1x_Grey" transform="translate(-1637.5 63.5)">
	<path id="Path_644" class="st9" d="M1665.3,1302.8v3.4c0,0.1,0,0.3-0.1,0.4s-0.2,0.2-0.3,0.2l-2.8,0.4c-0.2,0.5-0.4,0.9-0.6,1.4
		c0.4,0.6,1,1.3,1.7,2.1c0.1,0.1,0.1,0.2,0.1,0.4c0,0.1,0,0.3-0.1,0.3c-0.5,0.6-1,1.1-1.5,1.6c-0.7,0.7-1.2,1.1-1.4,1.1
		c-0.1,0-0.3,0-0.4-0.1l-2.1-1.7c-0.5,0.2-0.9,0.4-1.4,0.6c-0.1,1-0.2,1.9-0.4,2.8c0,0.3-0.3,0.5-0.6,0.4h-3.4c-0.1,0-0.3,0-0.4-0.1
		s-0.2-0.2-0.2-0.3l-0.4-2.8c-0.5-0.1-0.9-0.3-1.4-0.6l-2.2,1.6c-0.1,0.1-0.2,0.1-0.4,0.1c-0.1,0-0.3-0.1-0.4-0.1
		c-1.8-1.6-2.6-2.6-2.6-2.9c0-0.1,0.1-0.2,0.1-0.3c0.1-0.2,0.4-0.5,0.8-1s0.7-0.9,0.9-1.1c-0.3-0.5-0.5-1-0.6-1.5l-2.8-0.4
		c-0.1,0-0.2-0.1-0.3-0.2c-0.1-0.1-0.1-0.2-0.1-0.4v-3.4c0-0.1,0-0.3,0.1-0.4s0.2-0.2,0.3-0.2l2.8-0.4c0.2-0.5,0.4-0.9,0.6-1.4
		c-0.4-0.6-1-1.3-1.7-2.1c-0.1-0.1-0.1-0.2-0.1-0.4c0-0.1,0-0.3,0.1-0.4c0.5-0.6,1-1.1,1.5-1.6c0.7-0.7,1.2-1.1,1.4-1.1
		c0.1,0,0.3,0,0.4,0.1l2.1,1.7c0.5-0.2,0.9-0.4,1.4-0.6c0.1-1,0.2-1.9,0.4-2.8c0-0.3,0.3-0.5,0.6-0.4h3.4c0.1,0,0.3,0,0.4,0.1
		s0.2,0.2,0.2,0.3l0.4,2.8c0.5,0.1,0.9,0.3,1.4,0.6l2.2-1.6c0.1-0.1,0.2-0.1,0.4-0.1c0.1,0,0.3,0.1,0.4,0.1c1.8,1.6,2.6,2.6,2.6,2.9
		c0,0.1-0.1,0.2-0.1,0.3c-0.1,0.2-0.4,0.5-0.8,1s-0.6,0.8-0.8,1.1c0.2,0.5,0.4,1,0.6,1.5l2.8,0.4c0.1,0,0.2,0.1,0.3,0.2
		C1665.2,1302.6,1665.3,1302.7,1665.3,1302.8z"/>
	<path id="Path_645" class="st9" d="M1657.4,1308.4c2.2-2.2,2.2-5.7,0-7.9c-2.2-2.2-5.7-2.2-7.9,0c-2.2,2.2-2.2,5.7,0,7.9
		c1,1,2.5,1.6,3.9,1.6C1655,1310.1,1656.4,1309.5,1657.4,1308.4z"/>
</g>
<g id="Tools_1x_Grey_1_" transform="translate(-1637.5 63.5)">
	<path id="Path_644_1_" class="st7" d="M1665.3,1354.8v3.4c0,0.1,0,0.3-0.1,0.4s-0.2,0.2-0.3,0.2l-2.8,0.4c-0.2,0.5-0.4,0.9-0.6,1.4
		c0.4,0.6,1,1.3,1.7,2.1c0.1,0.1,0.1,0.2,0.1,0.4c0,0.1,0,0.3-0.1,0.3c-0.5,0.6-1,1.1-1.5,1.6c-0.7,0.7-1.2,1.1-1.4,1.1
		c-0.1,0-0.3,0-0.4-0.1l-2.1-1.7c-0.5,0.2-0.9,0.4-1.4,0.6c-0.1,1-0.2,1.9-0.4,2.8c0,0.3-0.3,0.5-0.6,0.4h-3.4c-0.1,0-0.3,0-0.4-0.1
		s-0.2-0.2-0.2-0.3l-0.4-2.8c-0.5-0.1-0.9-0.3-1.4-0.6l-2.2,1.6c-0.1,0.1-0.2,0.1-0.4,0.1c-0.1,0-0.3-0.1-0.4-0.1
		c-1.8-1.6-2.6-2.6-2.6-2.9c0-0.1,0-0.2,0.1-0.3c0.1-0.2,0.4-0.5,0.8-1s0.7-0.9,0.9-1.1c-0.3-0.5-0.5-1-0.6-1.5l-2.8-0.4
		c-0.1,0-0.2-0.1-0.3-0.2c-0.1-0.1-0.1-0.2-0.1-0.4v-3.4c0-0.1,0-0.3,0.1-0.4s0.2-0.2,0.3-0.2l2.8-0.4c0.2-0.5,0.4-0.9,0.6-1.4
		c-0.4-0.6-1-1.3-1.7-2.1c-0.1-0.1-0.1-0.2-0.1-0.4c0-0.1,0-0.3,0.1-0.4c0.5-0.6,1-1.1,1.5-1.6c0.7-0.7,1.2-1.1,1.4-1.1
		c0.1,0,0.3,0,0.4,0.1l2.1,1.7c0.5-0.2,0.9-0.4,1.4-0.6c0.1-1,0.2-1.9,0.4-2.8c0-0.3,0.3-0.5,0.6-0.4h3.4c0.1,0,0.3,0,0.4,0.1
		s0.2,0.2,0.2,0.3l0.4,2.8c0.5,0.1,0.9,0.3,1.4,0.6l2.2-1.6c0.1-0.1,0.2-0.1,0.4-0.1c0.1,0,0.3,0.1,0.4,0.1c1.8,1.6,2.6,2.6,2.6,2.9
		c0,0.1-0.1,0.2-0.1,0.3c-0.1,0.2-0.4,0.5-0.8,1s-0.6,0.8-0.8,1.1c0.2,0.5,0.4,1,0.6,1.5l2.8,0.4c0.1,0,0.2,0.1,0.3,0.2
		C1665.2,1354.6,1665.3,1354.7,1665.3,1354.8z"/>
	<path id="Path_645_1_" class="st7" d="M1657.4,1360.4c2.2-2.2,2.2-5.7,0-7.9c-2.2-2.2-5.7-2.2-7.9,0c-2.2,2.2-2.2,5.7,0,7.9
		c1,1,2.5,1.6,3.9,1.6C1655,1362.1,1656.4,1361.5,1657.4,1360.4z"/>
</g>
<g id="Network_1x_Yellow" transform="translate(-7 0.001)">
	<path id="network" class="st1" d="M38.5,1627.9H24.1v-3.9H28c0.9,0,1.6-0.7,1.6-1.6v-4.7c0-0.9-0.7-1.6-1.6-1.6h-9.4
		c-0.9,0-1.6,0.7-1.6,1.6v4.7c0,0.9,0.7,1.6,1.6,1.6h3.9v3.9H8.1c-0.2,0-0.4,0.2-0.4,0.4l0,0v0.8c0,0.2,0.2,0.4,0.4,0.4H14v3.9h-3.1
		c-0.9,0-1.6,0.7-1.6,1.6l0,0v4.7c0,0.9,0.7,1.6,1.6,1.6h7.8c0.9,0,1.6-0.7,1.6-1.6v-4.7c0-0.9-0.7-1.6-1.6-1.6h-3.1v-3.9h15.6v3.9
		H28c-0.9,0-1.6,0.7-1.6,1.6v4.7c0,0.9,0.7,1.6,1.6,1.6h7.8c0.9,0,1.6-0.7,1.6-1.6v-4.7c0-0.9-0.7-1.6-1.6-1.6h-3.1v-3.9h5.9
		c0.2,0,0.4-0.2,0.4-0.4v-0.8C38.9,1628,38.7,1627.9,38.5,1627.9L38.5,1627.9z M18.9,1634.6v5.2h-8.5v-5.2H18.9z M18.2,1622.8v-5.4
		h10.2v5.4H18.2z M36.1,1634.6v5.2h-8.5v-5.2H36.1z"/>
</g>
<g id="Network_1x_White" transform="translate(-7 0.001)">
	<path id="network_00000019652562470123203370000011774408111198134926_" class="st0" d="M38.5,1578.7H24.1v-3.9H28
		c0.9,0,1.6-0.7,1.6-1.6v-4.7c0-0.9-0.7-1.6-1.6-1.6h-9.4c-0.9,0-1.6,0.7-1.6,1.6v4.7c0,0.9,0.7,1.6,1.6,1.6h3.9v3.9H8.1
		c-0.2,0-0.4,0.2-0.4,0.4l0,0v0.8c0,0.2,0.2,0.4,0.4,0.4H14v3.9h-3.1c-0.9,0-1.6,0.7-1.6,1.6l0,0v4.7c0,0.9,0.7,1.6,1.6,1.6h7.8
		c0.9,0,1.6-0.7,1.6-1.6v-4.7c0-0.9-0.7-1.6-1.6-1.6h-3.1v-3.9h15.6v3.9H28c-0.9,0-1.6,0.7-1.6,1.6v4.7c0,0.9,0.7,1.6,1.6,1.6h7.8
		c0.9,0,1.6-0.7,1.6-1.6v-4.7c0-0.9-0.7-1.6-1.6-1.6h-3.1v-3.9h5.9c0.2,0,0.4-0.2,0.4-0.4v-0.8C38.9,1578.9,38.7,1578.7,38.5,1578.7
		L38.5,1578.7z M18.9,1585.5v5.2h-8.5v-5.2H18.9z M18.2,1573.6v-5.4h10.2v5.4H18.2z M36.1,1585.5v5.2h-8.5v-5.2H36.1z"/>
</g>
<g id="Search_1x_White" transform="translate(0 0)">
	<path id="Search" class="st0" d="M4.4,1693.4l6.1-6.1c4.4,3.9,11.2,3.4,15.1-1s3.4-11.2-1-15.1s-11.2-3.4-15.1,1
		c-3.5,4-3.5,10,0,14l-6.1,6.1c-0.1,0.1-0.2,0.3-0.2,0.5s0.1,0.4,0.2,0.5C3.7,1693.7,4.1,1693.7,4.4,1693.4z M17.5,1670.1
		c5.1,0,9.2,4.1,9.2,9.2s-4.1,9.2-9.2,9.2s-9.2-4.1-9.2-9.2S12.4,1670.1,17.5,1670.1z"/>
</g>
<g id="Search_1x_Yellow" transform="translate(0 0)">
	<path id="Search_00000007413658826492844450000008425656941329152670_" class="st1" d="M4.4,1745.4l6.1-6.1
		c4.4,3.9,11.2,3.4,15.1-1s3.4-11.2-1-15.1s-11.2-3.4-15.1,1c-3.5,4-3.5,10,0,14l-6.1,6.1c-0.1,0.1-0.2,0.3-0.2,0.5s0.1,0.4,0.2,0.5
		C3.7,1745.7,4.1,1745.7,4.4,1745.4z M17.5,1722.1c5.1,0,9.2,4.1,9.2,9.2s-4.1,9.2-9.2,9.2s-9.2-4.1-9.2-9.2
		S12.4,1722.1,17.5,1722.1z"/>
</g>
<g id="Layer_1_00000090259975880692850290000001097406172155903657_">
	<path class="st0" d="M25.2,1791.7v-3h-2.9v-3H9.6v3H6.8v3H3.9v4.2h24.2v-4.2C28.1,1791.7,25.2,1791.7,25.2,1791.7z M10.8,1786.9
		h10.3v1.8H10.8V1786.9z M8,1789.9H24v1.8H8C8,1791.7,8,1789.9,8,1789.9z M26.9,1794.7H5.1v-1.8h21.8L26.9,1794.7L26.9,1794.7z"/>
	<path class="st0" d="M12.5,1783.8l0.7-3.9l-2.8-2.7l3.9-0.6l1.7-3.5l1.7,3.5l3.9,0.6l-2.8,2.7l0.7,3.9l-3.5-1.8
		C16,1781.9,12.5,1783.8,12.5,1783.8z M16,1780.6l1.9,1l-0.4-2.1l1.5-1.5l-2.1-0.3l-0.9-1.9l-0.9,1.9L13,1778l1.5,1.5l-0.4,2.1
		C14.1,1781.6,16,1780.6,16,1780.6z"/>
</g>
<g id="Layer_1_00000142897301158823657370000013283040833571980705_">
	<path class="st1" d="M25,1842.6v-3h-2.9v-3H9.4v3H6.5v3H3.6v4.2h24.2v-4.2C27.8,1842.6,25,1842.6,25,1842.6z M10.6,1837.7h10.3v1.8
		H10.6V1837.7z M7.7,1840.7h16.1v1.8H7.7C7.7,1842.6,7.7,1840.7,7.7,1840.7z M26.6,1845.6H4.8v-1.8h21.8L26.6,1845.6L26.6,1845.6z"
		/>
	<path class="st1" d="M12.2,1834.6l0.7-3.9l-2.8-2.7l3.9-0.6l1.7-3.5l1.7,3.5l3.9,0.6l-2.8,2.7l0.7,3.9l-3.5-1.8
		C15.7,1832.8,12.2,1834.6,12.2,1834.6z M15.7,1831.4l1.9,1l-0.4-2.1l1.5-1.5l-2.1-0.3l-0.9-1.9l-0.9,1.9l-2.1,0.3l1.5,1.5l-0.4,2.1
		C13.8,1832.4,15.7,1831.4,15.7,1831.4z"/>
</g>
</svg>
