<svg xmlns="http://www.w3.org/2000/svg" width="20" height="18" viewBox="0 0 20 18">
  <g id="Twitter_1x" data-name="Twitter 1x" transform="translate(-58.799 -28.957)">
    <path id="Path_4" data-name="Path 4" d="M65.089,46.957c7.547,0,11.675-6.924,11.675-12.929,0-.2,0-.392-.011-.588A8.894,8.894,0,0,0,78.8,31.088a7.571,7.571,0,0,1-2.357.715,4.506,4.506,0,0,0,1.8-2.514,7.734,7.734,0,0,1-2.605,1.1,3.925,3.925,0,0,0-3-1.436,4.341,4.341,0,0,0-4.1,4.544,5,5,0,0,0,.106,1.036,11.316,11.316,0,0,1-8.457-4.748,4.906,4.906,0,0,0-.557,2.285,4.688,4.688,0,0,0,1.826,3.782,3.783,3.783,0,0,1-1.858-.568c0,.018,0,.038,0,.057A4.456,4.456,0,0,0,62.894,39.8a3.73,3.73,0,0,1-1.853.078,4.185,4.185,0,0,0,3.833,3.155,7.743,7.743,0,0,1-5.1,1.946,7.481,7.481,0,0,1-.979-.063,10.812,10.812,0,0,0,6.29,2.041" fill="#393630"/>
  </g>
</svg>
